<?xml version="1.0" encoding="UTF-8" standalone="no"?>
<!DOCTYPE svg PUBLIC "-//W3C//DTD SVG 1.1//EN"
 "http://www.w3.org/Graphics/SVG/1.1/DTD/svg11.dtd">
<!-- Generated by graphviz version 2.38.0 (20140413.2041)
 -->
<!-- Title: G Pages: 1 -->
<svg width="210pt" height="168pt"
 viewBox="0.00 0.00 210.00 168.00" xmlns="http://www.w3.org/2000/svg" xmlns:xlink="http://www.w3.org/1999/xlink">
<g id="graph0" class="graph" transform="scale(1 1) rotate(0) translate(4 164)">
<title>G</title>
<polygon fill="white" stroke="none" points="-4,4 -4,-164 206,-164 206,4 -4,4"/>
<g id="clust1" class="cluster"><title>cluster_Global</title>
<path fill="none" stroke="gray" d="M20,-8C20,-8 182,-8 182,-8 188,-8 194,-14 194,-20 194,-20 194,-140 194,-140 194,-146 188,-152 182,-152 182,-152 20,-152 20,-152 14,-152 8,-146 8,-140 8,-140 8,-20 8,-20 8,-14 14,-8 20,-8"/>
<text text-anchor="middle" x="101" y="-139.2" font-family="Times New Roman,serif" font-size="11.00" fill="gray">Global</text>
</g>
<g id="clust2" class="cluster"><title>cluster_\imelgrat</title>
<path fill="none" stroke="gray" d="M28,-16C28,-16 174,-16 174,-16 180,-16 186,-22 186,-28 186,-28 186,-112 186,-112 186,-118 180,-124 174,-124 174,-124 28,-124 28,-124 22,-124 16,-118 16,-112 16,-112 16,-28 16,-28 16,-22 22,-16 28,-16"/>
<text text-anchor="middle" x="101" y="-111.2" font-family="Times New Roman,serif" font-size="11.00" fill="gray">imelgrat</text>
</g>
<g id="clust3" class="cluster"><title>cluster_\imelgrat\GoogleMapsTimeZone</title>
<path fill="none" stroke="gray" d="M36,-24C36,-24 166,-24 166,-24 172,-24 178,-30 178,-36 178,-36 178,-84 178,-84 178,-90 172,-96 166,-96 166,-96 36,-96 36,-96 30,-96 24,-90 24,-84 24,-84 24,-36 24,-36 24,-30 30,-24 36,-24"/>
<text text-anchor="middle" x="101" y="-83.2" font-family="Times New Roman,serif" font-size="11.00" fill="gray">GoogleMapsTimeZone</text>
</g>
<!-- \\imelgrat\\GoogleMapsTimeZone\\GoogleMapsTimeZone -->
<g id="node1" class="node"><title>\\imelgrat\\GoogleMapsTimeZone\\GoogleMapsTimeZone</title>
<polygon fill="none" stroke="black" points="170,-68 32,-68 32,-32 170,-32 170,-68"/>
<text text-anchor="middle" x="101" y="-47.2" font-family="Courier,monospace" font-size="11.00">GoogleMapsTimeZone</text>
</g>
</g>
</svg>
